<?xml version="1.0" encoding="utf-8"?>
<!-- Generator: Adobe Illustrator 27.0.0, SVG Export Plug-In . SVG Version: 6.00 Build 0)  -->
<svg version="1.1" id="Layer_2" xmlns="http://www.w3.org/2000/svg" xmlns:xlink="http://www.w3.org/1999/xlink" x="0px" y="0px"
	 viewBox="0 0 32 32" style="enable-background:new 0 0 32 32;" xml:space="preserve">
<style type="text/css">
	.st0{clip-path:url(#SVGID_00000005989641524530136620000000784225699731281568_);fill:#289EFD;}
	.st1{clip-path:url(#SVGID_00000005989641524530136620000000784225699731281568_);fill:#2A60FC;}
</style>
<g>
	<g>
		<defs>
			<rect id="SVGID_1_" x="3" y="3" width="26" height="26"/>
		</defs>
		<clipPath id="SVGID_00000070118350308669039140000016300828122451344782_">
			<use xlink:href="#SVGID_1_"  style="overflow:visible;"/>
		</clipPath>
		<path style="clip-path:url(#SVGID_00000070118350308669039140000016300828122451344782_);fill:#289EFD;" d="M12.2,23.6
			c-0.2,0.2-0.3,0.4-0.3,0.7c0,0.3,0.1,0.5,0.3,0.7l3.1,3.1c0.2,0.2,0.4,0.3,0.7,0.3c0.3,0,0.5-0.1,0.7-0.3l3.1-3.1
			c0.4-0.4,0.4-1,0-1.4c-0.4-0.4-1-0.4-1.4,0L16.9,25V14.9c0-0.6-0.4-1-1-1c-0.6,0-1,0.5-1,1V25l-1.4-1.4
			C13.1,23.3,12.5,23.3,12.2,23.6L12.2,23.6z M12.2,23.6"/>
		<path style="clip-path:url(#SVGID_00000070118350308669039140000016300828122451344782_);fill:#2A60FC;" d="M24.3,10.6
			c0.1-8.1-11.2-9.8-13.6-2.2c-10-0.5-9.4,14,0.7,12.9h2.5v-1.6c0-1.4,0-2.8,0-3.8c0-1,0-1.6,0.3-2l0.3-0.5c0.4-0.4,0.9-0.5,1.5-0.5
			c0.5,0,1,0.2,1.4,0.6c0.1,0.1,0.2,0.1,0.3,0.3c0,0,0.2,0.2,0.2,0.3c0.1,0.3,0.1,0.5,0.1,0.6c0,0.8,0,1.5,0,2.3c0,0.9,0,1.4,0,2.6
			v1.6h5c2.7,0,5-2,5.4-4.8C28.7,13.9,27,11.3,24.3,10.6z M24.3,10.6"/>
	</g>
</g>
</svg>
