<?xml version="1.0" encoding="utf-8"?>
<!-- Generator: Adobe Illustrator 24.0.1, SVG Export Plug-In . SVG Version: 6.00 Build 0)  -->
<svg xmlns="http://www.w3.org/2000/svg" enable-background="new 0 0 64 64" viewBox="0 0 64 64" id="email"><polygon fill="#fbb553" points="8.4 20.7 8.4 30.1 2.5 25.5"></polygon><path d="M64,25.5c0,0,0-0.1,0-0.1c0,0,0-0.1,0-0.1c0,0,0-0.1,0-0.1c0,0,0-0.1-0.1-0.1c0,0,0-0.1,0-0.1c0,0,0,0,0,0l-0.1-0.1c0,0,0,0,0,0l-8.1-6.6V7.6c0-0.5-0.4-1-1-1H41.3l-5.4-4.4c-2.3-1.8-5.5-1.8-7.8,0l-5.4,4.4H9.4c-0.5,0-1,0.4-1,1v10.7l-8.1,6.6c0,0,0,0,0,0.1c0,0,0,0-0.1,0.1c0,0,0,0,0,0c0,0,0,0,0,0c0,0-0.1,0.1-0.1,0.1c0,0,0,0.1,0,0.1c0,0,0,0.1,0,0.1c0,0,0,0.1,0,0.2c0,0,0,0,0,0v36.6c0,0,0,0.1,0,0.1c0,0.1,0,0.1,0,0.2c0,0.1,0,0.1,0.1,0.2c0,0,0,0.1,0,0.1c0,0,0.1,0.1,0.1,0.1c0,0,0,0,0,0C0.4,63,0.5,63,0.6,63.1c0,0,0,0,0.1,0c0.1,0,0.2,0.1,0.3,0.1H63c0.1,0,0.2,0,0.3-0.1c0,0,0,0,0.1,0c0.1,0,0.2-0.1,0.3-0.2c0,0,0,0,0,0c0,0,0.1-0.1,0.1-0.1c0,0,0-0.1,0-0.1c0-0.1,0-0.1,0.1-0.2c0-0.1,0-0.1,0-0.2c0,0,0,0,0-0.1L64,25.5C64,25.5,64,25.5,64,25.5z M55.6,20.7l5.9,4.8l-5.9,4.5V20.7z M29.3,3.7c1.6-1.3,3.8-1.3,5.4,0l3.5,2.9H25.8L29.3,3.7z M10.4,8.5h43.3v23L37.1,44.3H26.9L10.4,31.6V8.5z M8.4,20.7v9.3l-5.9-4.5L8.4,20.7z M1.9,27.5l22.9,17.7L1.9,60.4V27.5z M4.2,61.2l22.7-15h10.3l22.7,15H4.2z M62.1,60.4L39.1,45.2l22.9-17.7V60.4z"></path><path fill="#d5d6d5" d="M10.4,8.5v23l16.5,12.7h10.2l16.5-12.7v-23H10.4z M47,33.4H17c-0.5,0-1-0.4-1-1c0-0.5,0.4-1,1-1H47c0.5,0,1,0.4,1,1C47.9,32.9,47.5,33.4,47,33.4z M47,27.3H17c-0.5,0-1-0.4-1-1c0-0.5,0.4-1,1-1H47c0.5,0,1,0.4,1,1C47.9,26.9,47.5,27.3,47,27.3z M47,21.2H17c-0.5,0-1-0.4-1-1c0-0.5,0.4-1,1-1H47c0.5,0,1,0.4,1,1C47.9,20.8,47.5,21.2,47,21.2z M47,15.2H17c-0.5,0-1-0.4-1-1c0-0.5,0.4-1,1-1H47c0.5,0,1,0.4,1,1C47.9,14.8,47.5,15.2,47,15.2z"></path><polygon fill="#edeced" points="12.3 8.5 12.3 33.1 10.4 31.6 10.4 8.5"></polygon><polygon fill="#bfbebc" points="51.7 8.5 51.7 33.1 53.6 31.6 53.6 8.5"></polygon><polygon fill="#5acaf4" points="59.8 61.2 4.2 61.2 26.8 46.2 37.2 46.2"></polygon><polygon fill="#36a1cf" points="59.8 61.2 4.2 61.2 6.1 59.9 57.9 59.9"></polygon><polygon fill="#43b4dc" points="57.9 59.9 6.1 59.9 10.1 57.3 53.9 57.3"></polygon><polygon fill="#5acaf4" points="62.1 27.5 62.1 60.4 39.1 45.2"></polygon><polygon fill="#fbb553" points="61.5 25.5 55.6 30.1 55.6 20.7"></polygon><polygon fill="#e8932f" points="61.5 25.5 60.5 26.2 55.6 22.2 55.6 20.7"></polygon><polygon fill="#f1a444" points="60.5 26.2 58.9 27.5 55.6 24.8 55.6 22.2"></polygon><polygon fill="#e8932f" points="2.5 25.5 3.4 26.2 8.4 22.2 8.4 20.7"></polygon><polygon fill="#f1a444" points="3.4 26.2 5.1 27.5 8.4 24.8 8.4 22.2"></polygon><polygon fill="#5acaf4" points="24.9 45.2 1.9 60.4 1.9 27.5"></polygon><polygon fill="#36a1cf" points="3.5 28.7 3.5 59.4 1.9 60.4 1.9 27.5"></polygon><polygon fill="#43b4dc" points="7.2 31.5 7.2 56.9 3.5 59.4 3.5 28.7"></polygon><polygon fill="#36a1cf" points="60.5 28.7 60.5 59.4 62.1 60.4 62.1 27.5"></polygon><polygon fill="#43b4dc" points="56.8 31.5 56.8 56.9 60.5 59.4 60.5 28.7"></polygon><path fill="#fbb553" d="M38.2,6.6H25.8l3.5-2.9c1.6-1.3,3.8-1.3,5.4,0L38.2,6.6z"></path><path fill="#e8932f" d="M38.2,6.6H37l-2.4-1.9c-1.5-1.3-3.8-1.3-5.3,0L27,6.6h-1.2l3.5-2.9c1.6-1.3,3.8-1.3,5.4,0L38.2,6.6z"></path><path fill="#f1a444" d="M37,6.6h-2l-0.4-0.3c-1.6-1.3-3.8-1.3-5.4,0L29,6.6h-2l2.3-1.9c1.6-1.3,3.8-1.3,5.3,0L37,6.6z"></path><path d="M47.9 14.2c0 .5-.4 1-1 1H17c-.5 0-1-.4-1-1 0-.5.4-1 1-1H47C47.5 13.2 47.9 13.7 47.9 14.2zM47.9 20.3c0 .5-.4 1-1 1H17c-.5 0-1-.4-1-1 0-.5.4-1 1-1H47C47.5 19.3 47.9 19.7 47.9 20.3zM47.9 26.3c0 .5-.4 1-1 1H17c-.5 0-1-.4-1-1 0-.5.4-1 1-1H47C47.5 25.4 47.9 25.8 47.9 26.3zM47.9 32.4c0 .5-.4 1-1 1H17c-.5 0-1-.4-1-1 0-.5.4-1 1-1H47C47.5 31.4 47.9 31.8 47.9 32.4z"></path></svg>
