<?xml version="1.0" encoding="utf-8"?>
<!-- Generator: Adobe Illustrator 24.0.1, SVG Export Plug-In . SVG Version: 6.00 Build 0)  -->
<svg xmlns="http://www.w3.org/2000/svg" width="98.164" height="99.59" id="skype"><path fill="#fff" d="M50.333 88.798c-19.733 0-42.154-23.769-40.361-43.5C11.765 26.46 36.88 8.97 55.486 11.661c16.373 2.241 30.95 22.872 30.05 39.241-.893 17.263-17.938 37.896-35.203 37.896Z" data-name="Path 45"></path><path fill="#00aff0" d="M64.462 98.88c-1.347-.448-3.366-.9-4.486-1.345-1.345-.671-2.916-.671-7.847-.448a50.526 50.526 0 0 1-10.538-.45A47.375 47.375 0 0 1 4.143 62.56c-.9-3.363-1.12-5.157-1.12-13.229 0-8.747-.225-9.418-1.345-13.006A27.069 27.069 0 0 1 27.239 0 28.5 28.5 0 0 1 38.45 2.466c1.8.9 2.916 1.12 9.865 1.12 6.279 0 8.745.225 11.883 1.123a47.361 47.361 0 0 1 31.613 25.562 45.315 45.315 0 0 1 4.263 25.109c-.448 4.936-.448 5.384.673 8.3a27.483 27.483 0 0 1-8.52 29.823 36.251 36.251 0 0 1-11.436 5.607 31.443 31.443 0 0 1-12.111-.225h-.219Zm-6.056-17.262c7.405-1.568 13.905-6.054 16.369-11.438 3.136-6.5 2.241-14.124-2.018-18.833-3.588-4.036-8.97-6.277-21.751-9.416-8.522-2.018-10.54-2.916-12.333-4.934-1.57-1.8-1.8-3.139-.448-5.157 1.345-2.243 4.709-3.588 9.193-3.811 6.5-.448 9.418 1.12 13.229 7.175 2.916 4.486 5.829 5.606 9.645 3.811 4.932-2.466 4.484-10.538-.9-15.247-5.157-4.258-10.761-6.053-20.181-6.053-9.865 0-16.594 2.018-21.078 6.5-3.588 3.588-4.259 5.606-4.259 11.211 0 5.829.673 7.622 4.484 10.988 4.036 3.811 7.4 5.159 19.506 8.072 8.522 2.018 10.765 3.139 12.781 5.382a5.473 5.473 0 0 1 1.347 4.036c0 2.243-.225 2.691-2.018 4.486-2.691 2.69-6.727 3.811-11.884 3.59-6.054-.45-8.745-2.243-11.883-8.522-2.243-4.259-4.036-5.829-6.952-5.829-6.5 0-8.745 5.382-5.382 12.331 2.916 6.056 8.745 10.092 16.145 11.661 4.484.9 14.351.9 18.612 0h-.225Z" data-name="Path 46"></path></svg>
