<?xml version="1.0" encoding="utf-8"?>
<!-- Generator: Adobe Illustrator 27.0.0, SVG Export Plug-In . SVG Version: 6.00 Build 0)  -->
<svg version="1.1" xmlns="http://www.w3.org/2000/svg" xmlns:xlink="http://www.w3.org/1999/xlink" x="0px" y="0px"
	 viewBox="0 0 352.5 87" style="enable-background:new 0 0 352.5 87;" xml:space="preserve">
<style type="text/css">
	.st0{fill:none;stroke:url(#SVGID_1_);stroke-miterlimit:10;}
	.st1{fill:#1B1E39;}
	.st2{fill:#0085FF;}
	.st3{fill:#00FDC0;}
	.st4{opacity:0.36;fill:#1B1E39;enable-background:new    ;}
	.st5{opacity:0.36;fill:#FFFFFF;enable-background:new    ;}
	.st6{fill:#5B899E;}
	.st7{fill:#FFFFFF;}
	.st8{fill:#8F8F8F;}
	.st9{fill:#714B67;}
</style>
<g id="Layer_1">
	<g id="Layer_2_00000122682572942431344350000008047329046247584933_">
		<g id="Layer_1-2">
			
				<linearGradient id="SVGID_1_" gradientUnits="userSpaceOnUse" x1="190" y1="1" x2="190" y2="88" gradientTransform="matrix(1 0 0 -1 0 88)">
				<stop  offset="0" style="stop-color:#C8D4DB;stop-opacity:0"/>
				<stop  offset="3.000000e-02" style="stop-color:#C8D4DB;stop-opacity:0.15"/>
				<stop  offset="6.000000e-02" style="stop-color:#C8D4DB;stop-opacity:0.35"/>
				<stop  offset="0.11" style="stop-color:#C8D4DB;stop-opacity:0.52"/>
				<stop  offset="0.15" style="stop-color:#C8D4DB;stop-opacity:0.67"/>
				<stop  offset="0.2" style="stop-color:#C8D4DB;stop-opacity:0.79"/>
				<stop  offset="0.25" style="stop-color:#C8D4DB;stop-opacity:0.88"/>
				<stop  offset="0.31" style="stop-color:#C8D4DB;stop-opacity:0.95"/>
				<stop  offset="0.38" style="stop-color:#C8D4DB;stop-opacity:0.99"/>
				<stop  offset="0.5" style="stop-color:#C8D4DB"/>
				<stop  offset="0.62" style="stop-color:#C8D4DB;stop-opacity:0.99"/>
				<stop  offset="0.69" style="stop-color:#C8D4DB;stop-opacity:0.95"/>
				<stop  offset="0.75" style="stop-color:#C8D4DB;stop-opacity:0.88"/>
				<stop  offset="0.8" style="stop-color:#C8D4DB;stop-opacity:0.79"/>
				<stop  offset="0.85" style="stop-color:#C8D4DB;stop-opacity:0.67"/>
				<stop  offset="0.89" style="stop-color:#C8D4DB;stop-opacity:0.52"/>
				<stop  offset="0.94" style="stop-color:#C8D4DB;stop-opacity:0.35"/>
				<stop  offset="0.97" style="stop-color:#C8D4DB;stop-opacity:0.15"/>
				<stop  offset="1" style="stop-color:#C8D4DB;stop-opacity:0"/>
			</linearGradient>
			<line class="st0" x1="190" y1="0" x2="190" y2="87"/>
		</g>
	</g>
	<g id="Layer_1_1_">
		<g>
			<path class="st1" d="M54.6,48.2l-2.3,3H41.1V39.6h13.5l-2.3,3.1h-7.5V44H54l-2.1,2.6h-7.2v1.6C44.7,48.2,54.6,48.2,54.6,48.2z"/>
			<path class="st1" d="M73.3,51.3H63.2c-0.9,0-1.9-0.1-2.7-0.4c-0.8-0.2-1.6-0.6-2.2-1.1c-0.6-0.5-1.2-1.1-1.5-1.8
				c-0.3-0.7-0.5-1.6-0.5-2.5c0-2.1,0.7-3.6,2.1-4.5s3.6-1.5,6.3-1.5c2.8,0,5,0.5,6.3,1.5c1.4,0.9,2.1,2.4,2.1,4.5
				c0,0.7-0.2,1.4-0.5,1.9h-3.9c0.3-0.2,0.5-0.4,0.6-0.8c0.1-0.3,0.2-0.7,0.2-1.2c0-0.6-0.1-1.2-0.2-1.5c-0.2-0.4-0.4-0.7-0.8-0.9
				c-0.4-0.2-0.8-0.3-1.5-0.4c-0.6-0.1-1.4-0.1-2.3-0.1s-1.7,0-2.3,0.1c-0.6,0.1-1.2,0.2-1.5,0.4c-0.4,0.2-0.6,0.5-0.8,0.9
				c-0.2,0.4-0.2,0.8-0.2,1.5c0,0.5,0.1,0.9,0.2,1.4c0.2,0.3,0.4,0.6,0.6,0.8c0.3,0.2,0.6,0.4,1.1,0.4c0.4,0.1,0.9,0.1,1.5,0.1H64
				c0.2,0,0.4,0,0.7,0c0.2,0,0.5,0,0.6,0c-0.2-0.1-0.4-0.2-0.6-0.4c-0.2-0.2-0.4-0.3-0.6-0.5L62.6,46h4.6L73.3,51.3z"/>
			<path class="st1" d="M86.4,44.2c1.4,0,2.5,0.2,3.3,0.8c0.7,0.5,1.2,1.4,1.2,2.4c0,0.6-0.1,1.2-0.3,1.6c-0.2,0.4-0.5,0.8-0.8,1.2
				c-0.4,0.3-0.9,0.5-1.6,0.7c-0.6,0.2-1.4,0.2-2.2,0.2H75l2.3-3h8.7c0.4,0,0.7-0.1,0.9-0.2c0.2-0.1,0.3-0.3,0.3-0.6
				c0-0.3-0.1-0.5-0.3-0.6c-0.2-0.1-0.5-0.2-0.9-0.2h-6.3c-0.7,0-1.4-0.1-1.9-0.2c-0.5-0.2-0.9-0.4-1.4-0.6
				c-0.3-0.3-0.6-0.6-0.8-1.1s-0.2-0.8-0.2-1.4s0.1-1.1,0.3-1.5c0.2-0.4,0.5-0.8,0.8-1.2c0.4-0.3,0.9-0.5,1.6-0.7
				c0.6-0.2,1.4-0.2,2.2-0.2h10.1l-2.3,3.1h-8.1c-0.4,0-0.7,0.1-0.9,0.2c-0.2,0.1-0.3,0.3-0.3,0.6c0,0.3,0.1,0.5,0.3,0.6
				c0.2,0.1,0.5,0.2,0.9,0.2L86.4,44.2L86.4,44.2z"/>
			<path class="st1" d="M106.4,39.7l-2.3,3.1H100v8.5h-3.6v-8.5h-5.5l2.3-3.1C93.3,39.7,106.4,39.7,106.4,39.7z"/>
			<path class="st1" d="M110,51.3l2.2-3h3c0.3,0,0.7,0,1.1,0c0.4,0,0.7,0,0.9,0c-0.2-0.2-0.3-0.4-0.5-0.8c-0.2-0.4-0.4-0.6-0.6-0.8
				l-2.1-3.1l-5.5,7.7h-4.2l7.5-10.5c0.2-0.3,0.5-0.6,0.9-0.9c0.4-0.3,0.8-0.4,1.4-0.4c0.5,0,0.9,0.1,1.4,0.4
				c0.3,0.2,0.6,0.5,0.9,0.9l7.3,10.5H110L110,51.3z"/>
			<path class="st1" d="M142,51.3h-4.8l-2.6-3.1H129v3.1h-3.6v-5.9h10.1c0.5,0,1.1-0.1,1.4-0.3c0.4-0.2,0.5-0.5,0.5-0.9
				s-0.2-0.8-0.5-1.1c-0.3-0.2-0.8-0.3-1.5-0.3h-10l2.3-3.1h7.5c0.6,0,1.4,0.1,2,0.2c0.7,0.1,1.4,0.3,1.9,0.6
				c0.6,0.3,1.1,0.7,1.5,1.3c0.4,0.5,0.5,1.2,0.5,2c0,0.4-0.1,0.8-0.2,1.3c-0.1,0.4-0.3,0.7-0.6,1.1c-0.2,0.3-0.6,0.6-0.9,0.8
				c-0.3,0.2-0.8,0.4-1.3,0.5c0.2,0.1,0.4,0.3,0.6,0.5c0.2,0.2,0.5,0.5,0.9,0.9L142,51.3z"/>
		</g>
		<g>
			<polygon class="st2" points="29.8,30.8 27.6,30.2 25.4,29.7 19.3,28.1 24.9,12 27.4,21.6 			"/>
			<polygon class="st3" points="49.2,30.5 49.2,30.5 49.2,30.5 37.5,38.8 35.5,40.3 35.4,40.1 34,38.1 32.5,35.6 32.4,35.7 
				33.3,38.4 33.6,39.2 34.1,40.8 34.3,41.2 34.3,41.2 32.1,42.7 27.7,46 9.3,59.2 10.6,54.4 11.9,50 13.5,44.6 20.3,41 24.6,43.1 
				25.4,43.7 22,40.2 28.8,36.7 32.1,35 33.8,34.1 49.2,30.5 			"/>
			<polygon class="st2" points="18.3,39.9 18.2,40 18.1,39.9 			"/>
			<polygon class="st2" points="34.8,42.9 34.8,42.9 34.3,41.2 32.4,35.7 32.2,35.2 32.2,35.3 32.5,35.6 32.4,35.7 34.3,41.2 			"/>
			<polygon class="st4" points="29.8,30.8 25.4,29.7 24.9,12 			"/>
			<polygon class="st4" points="32.9,40.1 33.6,39.2 32.1,42.7 27.7,46 9.3,59.2 11.9,50 24.6,43.1 24.8,43 33.3,38.4 			"/>
			<polygon class="st4" points="49.2,30.5 35.5,40.3 34,38.1 			"/>
			<polygon class="st4" points="29.8,30.8 27.6,30.2 27.4,21.6 			"/>
			<polygon class="st4" points="34.1,40.8 34.3,41.2 34.3,41.2 32.1,42.7 27.7,46 9.3,59.2 10.6,54.4 			"/>
			<polygon class="st1" points="40,58.2 18.3,36.6 27.6,35.5 32.1,35 32.1,35.1 32.2,35.3 32.4,35.7 34.3,41.2 34.8,42.9 37.5,50.7 
				37.5,50.7 			"/>
			<polygon class="st5" points="40,58.2 27.6,35.5 32.1,35 32.2,35.3 32.4,35.7 34.3,41.2 34.8,42.9 			"/>
			<polygon class="st5" points="37.5,50.7 30.7,36.2 32.1,35.1 32.2,35.3 32.4,35.7 34.3,41.2 34.8,42.9 			"/>
			<polygon class="st1" points="49.2,30.5 49.2,30.5 32.5,35.6 32.4,35.7 32.4,35.7 28.8,36.7 20.9,39.1 18.3,39.9 18.3,39.9 
				18.2,40 13.9,41.2 6.5,35.1 4.5,33.5 0,29.7 25.8,30.1 44.3,30.4 			"/>
			<polygon class="st5" points="44.3,30.4 6.5,35.1 0,29.7 			"/>
			<polygon class="st5" points="25.8,30.1 4.5,33.5 0,29.7 			"/>
		</g>
		<g>
			<polygon class="st2" points="153.8,42.5 155.8,39.6 158.6,39.6 156.3,42.5 			"/>
			<polygon class="st3" points="150.3,42.5 152.3,39.6 154.9,39.6 152.9,42.5 			"/>
			<path class="st1" d="M158.9,47.3c0,0.6-0.1,1.2-0.3,1.6s-0.4,0.8-0.8,1.2c-0.4,0.3-0.9,0.5-1.6,0.7c-0.6,0.2-1.4,0.2-2.2,0.2
				h-10.6l2.3-3h8.6c0.4,0,0.7-0.1,0.9-0.2s0.3-0.3,0.3-0.6c0-0.3-0.1-0.5-0.3-0.6s-0.5-0.2-0.9-0.2h-6.2c-0.7,0-1.4-0.1-1.9-0.2
				c-0.5-0.2-0.9-0.4-1.4-0.6c-0.3-0.3-0.6-0.6-0.8-1.1c-0.2-0.4-0.2-0.8-0.2-1.4c0-0.5,0.1-1.1,0.3-1.5s0.5-0.8,0.8-1.2
				c0.4-0.3,0.9-0.5,1.6-0.7c0.6-0.2,1.4-0.2,2.2-0.2h2.8l-2,3h-1.2c-0.4,0-0.7,0.1-0.9,0.2c-0.2,0.1-0.3,0.3-0.3,0.6
				c0,0.3,0.1,0.5,0.3,0.6s0.5,0.2,0.9,0.2h6.2c1.4,0,2.4,0.2,3.2,0.7C158.5,45.4,158.9,46.2,158.9,47.3z"/>
		</g>
	</g>
</g>
<g id="Layer_2">
	<g>
		<path class="st6" d="M352.3,75.5c0,0.6-0.5,1.1-1.1,1.1h-73c-0.6,0-1.1-0.5-1.1-1.1V60.1c0-0.6,0.5-1.1,1.1-1.1h73
			c0.6,0,1.1,0.5,1.1,1.1L352.3,75.5z"/>
		<path class="st7" d="M288.4,65c0,0-0.1,0.1-0.1,0.1c0,0-0.1,0-0.1,0c-0.1,0-0.1,0-0.2-0.1c-0.1-0.1-0.2-0.1-0.3-0.2
			c-0.1-0.1-0.3-0.1-0.4-0.2c-0.2-0.1-0.4-0.1-0.6-0.1c-0.2,0-0.4,0-0.6,0.1c-0.2,0.1-0.3,0.2-0.4,0.3c-0.1,0.1-0.2,0.2-0.3,0.4
			c-0.1,0.1-0.1,0.3-0.1,0.4c0,0.2,0,0.4,0.2,0.5c0.1,0.1,0.2,0.3,0.4,0.4c0.2,0.1,0.4,0.2,0.6,0.3c0.2,0.1,0.4,0.2,0.7,0.2
			c0.2,0.1,0.5,0.2,0.7,0.3c0.2,0.1,0.4,0.2,0.6,0.4c0.2,0.2,0.3,0.3,0.4,0.5c0.1,0.3,0.2,0.5,0.2,0.8c0,0.3-0.1,0.6-0.2,0.9
			c-0.1,0.3-0.3,0.5-0.5,0.8c-0.2,0.2-0.5,0.4-0.8,0.5c-0.3,0.1-0.7,0.2-1,0.2c-0.5,0-0.9-0.1-1.3-0.3c-0.4-0.2-0.7-0.4-1-0.7
			l0.3-0.5l0.1-0.1c0,0,0.1,0,0.1,0c0.1,0,0.2,0.1,0.3,0.1c0.1,0.1,0.2,0.2,0.3,0.3c0.2,0.1,0.3,0.2,0.5,0.3
			c0.2,0.1,0.5,0.1,0.7,0.1c0.2,0,0.4,0,0.6-0.1c0.2-0.1,0.3-0.2,0.5-0.3c0.1-0.1,0.2-0.3,0.3-0.4c0.1-0.2,0.1-0.4,0.1-0.6
			c0-0.4-0.2-0.7-0.6-0.9c-0.2-0.1-0.4-0.2-0.6-0.3c-0.2-0.1-0.5-0.1-0.7-0.2c-0.2-0.1-0.5-0.2-0.7-0.3c-0.2-0.1-0.4-0.2-0.6-0.4
			c-0.2-0.2-0.3-0.4-0.4-0.6c-0.1-0.3-0.2-0.5-0.2-0.8c0-0.3,0.1-0.5,0.2-0.8c0.2-0.5,0.6-0.9,1.2-1.1c0.3-0.1,0.6-0.2,1-0.2
			c0.4,0,0.8,0.1,1.1,0.2c0.3,0.1,0.6,0.3,0.9,0.6L288.4,65z"/>
		<path class="st7" d="M291.2,64.4c0,0.1,0,0.2-0.1,0.3c0,0.1-0.1,0.2-0.2,0.2c-0.1,0.1-0.1,0.1-0.2,0.1c-0.2,0.1-0.3,0.1-0.5,0
			c-0.1,0-0.2-0.1-0.2-0.1c-0.1-0.1-0.1-0.1-0.2-0.2c-0.1-0.2-0.1-0.4,0-0.5c0-0.1,0.1-0.2,0.2-0.2c0.1-0.1,0.1-0.1,0.2-0.1
			c0.2-0.1,0.3-0.1,0.5,0c0.1,0,0.2,0.1,0.2,0.1c0.1,0.1,0.1,0.1,0.2,0.2C291.2,64.2,291.2,64.3,291.2,64.4z M291,66.1v5.3h-0.9
			v-5.3H291z"/>
		<path class="st7" d="M293.7,63.7v7.7h-0.9v-7.7H293.7z"/>
		<path class="st7" d="M294.6,66.1h0.8c0.1,0,0.1,0,0.2,0.1c0.1,0,0.1,0.1,0.1,0.1l1.3,3.4c0.1,0.1,0.1,0.3,0.1,0.4
			c0,0.1,0.1,0.3,0.1,0.4l0.1-0.4c0-0.1,0.1-0.3,0.1-0.4l1.4-3.4c0,0,0.1-0.1,0.1-0.1c0,0,0.1-0.1,0.2-0.1h0.7l-2.2,5.3h-0.8
			L294.6,66.1z"/>
		<path class="st7" d="M302.6,66c0.3,0,0.6,0.1,0.9,0.2c0.3,0.1,0.5,0.3,0.7,0.4c0.2,0.2,0.4,0.5,0.4,0.7c0.1,0.3,0.2,0.7,0.2,1
			c0,0.2,0,0.3,0,0.3c-0.1,0-0.1,0.1-0.2,0.1H301c0,0.3,0,0.6,0.1,0.9c0.1,0.2,0.2,0.4,0.3,0.6c0.1,0.2,0.3,0.3,0.5,0.4
			c0.2,0.1,0.4,0.1,0.7,0.1c0.2,0,0.4,0,0.6-0.1c0.1-0.1,0.3-0.1,0.4-0.2c0.1-0.1,0.2-0.1,0.3-0.2c0.1-0.1,0.1-0.1,0.2-0.1
			c0.1,0,0.1,0,0.2,0.1l0.3,0.4c-0.1,0.1-0.3,0.3-0.4,0.4c-0.2,0.1-0.3,0.2-0.5,0.3c-0.2,0.1-0.4,0.1-0.6,0.2
			c-0.2,0-0.4,0.1-0.6,0.1c-0.3,0-0.7-0.1-1-0.2c-0.3-0.1-0.6-0.3-0.8-0.5c-0.2-0.2-0.4-0.6-0.5-0.9c-0.1-0.4-0.2-0.8-0.2-1.2
			c0-0.3,0.1-0.7,0.2-1c0.1-0.3,0.3-0.6,0.5-0.8c0.2-0.2,0.5-0.4,0.8-0.5C301.9,66,302.2,66,302.6,66z M302.6,66.7
			c-0.4,0-0.8,0.1-1,0.4c-0.3,0.3-0.4,0.7-0.5,1.1h2.9c0-0.2,0-0.4-0.1-0.6c-0.1-0.2-0.1-0.3-0.3-0.5c-0.1-0.1-0.3-0.2-0.4-0.3
			C303,66.7,302.8,66.7,302.6,66.7z"/>
		<path class="st7" d="M305.9,71.3v-5.3h0.5c0.1,0,0.2,0,0.2,0.1c0,0.1,0.1,0.1,0.1,0.2l0.1,0.8c0.2-0.3,0.4-0.6,0.7-0.9
			c0.3-0.2,0.6-0.3,0.9-0.3c0.1,0,0.3,0,0.4,0.1c0.1,0,0.2,0.1,0.3,0.1l-0.1,0.7c0,0.1-0.1,0.1-0.2,0.1c-0.1,0-0.2,0-0.2-0.1
			c-0.1,0-0.3-0.1-0.4-0.1c-0.3,0-0.6,0.1-0.8,0.3c-0.3,0.2-0.4,0.5-0.5,0.8v3.4L305.9,71.3z"/>
		<path class="st7" d="M313.4,68.5v2.8h-1v-7.5h2.2c0.4,0,0.8,0.1,1.2,0.2c0.3,0.1,0.6,0.2,0.9,0.5c0.2,0.2,0.4,0.4,0.5,0.7
			c0.2,0.6,0.2,1.3,0,1.9c-0.1,0.3-0.3,0.5-0.5,0.7c-0.2,0.2-0.5,0.4-0.9,0.5c-0.4,0.1-0.8,0.2-1.2,0.2L313.4,68.5L313.4,68.5z
			 M313.4,67.7h1.2c0.3,0,0.5,0,0.8-0.1c0.2-0.1,0.4-0.2,0.5-0.3c0.2-0.1,0.3-0.3,0.3-0.5c0.1-0.2,0.1-0.4,0.1-0.6
			c0-0.4-0.1-0.8-0.4-1.1c-0.4-0.3-0.9-0.4-1.3-0.4h-1.2V67.7z"/>
		<path class="st7" d="M322.1,71.3h-0.4c-0.1,0-0.2,0-0.2,0c-0.1,0-0.1-0.1-0.1-0.2l-0.1-0.5c-0.1,0.1-0.3,0.2-0.4,0.4
			c-0.1,0.1-0.3,0.2-0.4,0.3c-0.2,0.1-0.3,0.1-0.5,0.2c-0.2,0-0.4,0.1-0.5,0.1c-0.2,0-0.4,0-0.6-0.1c-0.2-0.1-0.3-0.1-0.5-0.3
			c-0.1-0.1-0.2-0.3-0.3-0.4c-0.1-0.2-0.1-0.4-0.1-0.6c0-0.2,0.1-0.4,0.2-0.6c0.1-0.2,0.3-0.4,0.5-0.5c0.3-0.2,0.7-0.3,1-0.4
			c0.5-0.1,1-0.2,1.5-0.2V68c0-0.3-0.1-0.7-0.3-0.9c-0.2-0.2-0.5-0.3-0.8-0.3c-0.2,0-0.4,0-0.6,0.1c-0.2,0.1-0.3,0.1-0.4,0.2
			c-0.1,0-0.2,0.1-0.3,0.2c-0.1,0.1-0.2,0.1-0.3,0.1c-0.1,0-0.1,0-0.2-0.1c0,0-0.1-0.1-0.1-0.1l-0.2-0.3c0.5-0.5,1.3-0.9,2.1-0.9
			c0.3,0,0.5,0.1,0.8,0.2c0.2,0.1,0.4,0.2,0.6,0.4c0.2,0.2,0.3,0.4,0.3,0.6c0.1,0.3,0.1,0.5,0.1,0.8L322.1,71.3L322.1,71.3z
			 M319.8,70.8c0.2,0,0.3,0,0.4-0.1c0.1,0,0.3-0.1,0.4-0.1c0.1-0.1,0.2-0.1,0.3-0.2c0.1-0.1,0.2-0.2,0.3-0.3V69
			c-0.4,0-0.7,0-1.1,0.1c-0.3,0-0.5,0.1-0.7,0.2c-0.2,0.1-0.3,0.2-0.4,0.3c-0.1,0.1-0.1,0.3-0.1,0.4c0,0.1,0,0.2,0.1,0.4
			c0,0.1,0.1,0.2,0.2,0.3c0.1,0.1,0.2,0.1,0.3,0.1L319.8,70.8z"/>
		<path class="st7" d="M323.5,71.3v-5.3h0.5c0.1,0,0.2,0,0.2,0.1c0,0.1,0.1,0.1,0.1,0.2l0.1,0.8c0.2-0.3,0.4-0.6,0.7-0.9
			c0.3-0.2,0.6-0.3,0.9-0.3c0.1,0,0.3,0,0.4,0.1c0.1,0,0.2,0.1,0.3,0.1l-0.1,0.7c0,0.1-0.1,0.1-0.2,0.1c-0.1,0-0.2,0-0.2-0.1
			c-0.1,0-0.3-0.1-0.4-0.1c-0.3,0-0.6,0.1-0.8,0.3c-0.3,0.2-0.4,0.5-0.5,0.8v3.4L323.5,71.3z"/>
		<path class="st7" d="M329.4,71.4c-0.4,0-0.7-0.1-1-0.4c-0.2-0.3-0.4-0.6-0.3-1v-3.2h-0.6c0,0-0.1,0-0.1-0.1c0,0-0.1-0.1-0.1-0.2
			v-0.4l0.9-0.1l0.2-1.6c0,0,0-0.1,0.1-0.1c0,0,0.1-0.1,0.2-0.1h0.5v1.8h1.5v0.7H329V70c0,0.2,0,0.4,0.2,0.5
			c0.1,0.1,0.3,0.2,0.4,0.2c0.1,0,0.2,0,0.3,0l0.2-0.1c0,0,0.1-0.1,0.1-0.1c0,0,0.1,0,0.1,0c0.1,0,0.1,0,0.1,0.1l0.3,0.4
			c-0.2,0.2-0.4,0.3-0.6,0.4C329.9,71.4,329.6,71.4,329.4,71.4z"/>
		<path class="st7" d="M331.6,71.3v-5.3h0.5c0.1,0,0.2,0.1,0.3,0.2l0.1,0.6c0.2-0.2,0.5-0.4,0.8-0.6c0.3-0.2,0.6-0.2,1-0.2
			c0.3,0,0.5,0,0.8,0.1c0.2,0.1,0.4,0.2,0.5,0.4c0.2,0.2,0.3,0.4,0.3,0.6c0.1,0.3,0.1,0.5,0.1,0.8v3.4h-0.9V68
			c0-0.3-0.1-0.7-0.3-0.9c-0.2-0.2-0.5-0.3-0.8-0.3c-0.3,0-0.5,0.1-0.8,0.2c-0.2,0.2-0.5,0.3-0.7,0.5v3.9L331.6,71.3L331.6,71.3z"/>
		<path class="st7" d="M339.5,66c0.3,0,0.6,0.1,0.9,0.2c0.3,0.1,0.5,0.3,0.7,0.4c0.2,0.2,0.4,0.5,0.4,0.7c0.1,0.3,0.2,0.7,0.2,1
			c0,0.1,0,0.2,0,0.3c-0.1,0-0.1,0.1-0.2,0.1H338c0,0.3,0,0.6,0.1,0.9c0.1,0.2,0.2,0.4,0.3,0.6c0.1,0.2,0.3,0.3,0.5,0.4
			c0.2,0.1,0.4,0.1,0.7,0.1c0.2,0,0.4,0,0.6-0.1c0.1-0.1,0.3-0.1,0.4-0.2c0.1-0.1,0.2-0.1,0.3-0.2c0.1-0.1,0.1-0.1,0.2-0.1
			c0.1,0,0.1,0,0.2,0.1l0.3,0.4c-0.1,0.1-0.3,0.3-0.4,0.4c-0.2,0.1-0.3,0.2-0.5,0.3c-0.2,0.1-0.4,0.1-0.6,0.2
			c-0.2,0-0.4,0.1-0.6,0.1c-0.3,0-0.7-0.1-1-0.2c-0.3-0.1-0.6-0.3-0.8-0.5c-0.2-0.2-0.4-0.6-0.5-0.9c-0.1-0.4-0.2-0.8-0.2-1.2
			c0-0.3,0.1-0.7,0.2-1c0.1-0.3,0.3-0.6,0.5-0.8c0.2-0.2,0.5-0.4,0.8-0.5C338.8,66,339.2,66,339.5,66z M339.5,66.7
			c-0.4,0-0.8,0.1-1,0.4c-0.3,0.3-0.4,0.7-0.5,1.1h2.9c0-0.2,0-0.4-0.1-0.6c-0.1-0.2-0.1-0.3-0.3-0.5c-0.1-0.1-0.3-0.2-0.4-0.3
			C339.9,66.7,339.7,66.7,339.5,66.7L339.5,66.7z"/>
		<path class="st7" d="M342.9,71.3v-5.3h0.5c0.1,0,0.2,0,0.2,0.1c0,0.1,0.1,0.1,0.1,0.2l0.1,0.8c0.2-0.3,0.4-0.6,0.7-0.9
			c0.3-0.2,0.6-0.3,0.9-0.3c0.1,0,0.3,0,0.4,0.1c0.1,0,0.2,0.1,0.3,0.1l-0.1,0.7c0,0.1-0.1,0.1-0.2,0.1c-0.1,0-0.2,0-0.2-0.1
			c-0.1,0-0.3-0.1-0.4-0.1c-0.3,0-0.6,0.1-0.8,0.3c-0.3,0.2-0.4,0.5-0.5,0.8v3.4L342.9,71.3z"/>
		<path class="st8" d="M336.9,22c-8.8,0-15.9,7.1-15.9,15.9s7.1,15.9,15.9,15.9s15.9-7.1,15.9-15.9S345.7,22,336.9,22z M336.9,47.4
			c-5.3,0-9.5-4.3-9.5-9.5s4.3-9.5,9.5-9.5s9.5,4.3,9.5,9.5l0,0C346.4,43.1,342.2,47.4,336.9,47.4z"/>
		<path class="st8" d="M303.5,22c-8.8,0-15.9,7.1-15.9,15.9s7.1,15.9,15.9,15.9c8.8,0,15.9-7.1,15.9-15.9S312.3,22,303.5,22z
			 M303.5,47.4c-5.3,0-9.5-4.3-9.5-9.5s4.3-9.5,9.5-9.5c5.3,0,9.5,4.3,9.5,9.5l0,0C313,43.1,308.8,47.4,303.5,47.4z"/>
		<path class="st9" d="M236.7,22c-8.8,0-15.9,7.1-15.9,15.9s7.1,15.9,15.9,15.9s15.9-7.1,15.9-15.9S245.5,22,236.7,22z M236.7,47.4
			c-5.3,0-9.5-4.3-9.5-9.5s4.3-9.5,9.5-9.5s9.5,4.3,9.5,9.5l0,0C246.2,43.1,242,47.4,236.7,47.4z"/>
		<path class="st8" d="M282.8,12.4c-1.8,0-3.2,1.4-3.2,3.2v9.5c-7-5.3-17-3.8-22.3,3.2c-5.3,7-3.8,17,3.2,22.3
			c7,5.3,17,3.8,22.3-3.2c2.1-2.7,3.2-6.1,3.2-9.5l0,0V15.6C286,13.8,284.6,12.4,282.8,12.4z M270.1,47.4c-5.3,0-9.5-4.3-9.5-9.5
			s4.3-9.5,9.5-9.5s9.5,4.3,9.5,9.5l0,0C279.6,43.1,275.4,47.4,270.1,47.4z"/>
	</g>
</g>
</svg>
