<svg xmlns="http://www.w3.org/2000/svg" xmlns:xlink="http://www.w3.org/1999/xlink" width="85.223" height="85.223" viewBox="0 0 85.223 85.223">
  <defs>
    <clipPath id="clip-path">
      <rect id="Rectangle_6" data-name="Rectangle 6" width="85.223" height="85.223" transform="translate(0 0)" fill="#d22e3f"/>
    </clipPath>
  </defs>
  <g id="Icon" transform="translate(0 0)">
    <g id="Group_6" data-name="Group 6" clip-path="url(#clip-path)">
      <path id="Path_21" data-name="Path 21" d="M42.612,65.192a22.581,22.581,0,1,1,22.58-22.581,22.606,22.606,0,0,1-22.58,22.581m0-42.371A19.791,19.791,0,1,0,62.4,42.611a19.813,19.813,0,0,0-19.79-19.79" fill="#d22e3f"/>
      <path id="Path_22" data-name="Path 22" d="M45.046,85.223H40.177a6.357,6.357,0,0,1-6.349-6.35V74.7a33.011,33.011,0,0,1-7.7-3.187l-2.949,2.948a6.349,6.349,0,0,1-8.979,0L10.76,71.021a6.349,6.349,0,0,1,0-8.98l2.948-2.948a33.026,33.026,0,0,1-3.186-7.7H6.35A6.356,6.356,0,0,1,0,45.046V40.177a6.357,6.357,0,0,1,6.35-6.35h4.172a33.008,33.008,0,0,1,3.186-7.7L10.76,23.182a6.349,6.349,0,0,1,0-8.98L14.2,10.76a6.355,6.355,0,0,1,8.979,0l2.949,2.948a33.011,33.011,0,0,1,7.7-3.187V6.35A6.357,6.357,0,0,1,40.177,0h4.869A6.357,6.357,0,0,1,51.4,6.35v4.171a33.018,33.018,0,0,1,7.7,3.187l2.947-2.948a6.356,6.356,0,0,1,8.98,0L74.464,14.2a6.357,6.357,0,0,1,0,8.98L71.516,26.13a33.062,33.062,0,0,1,3.186,7.7h4.171a6.358,6.358,0,0,1,6.35,6.35v4.869a6.357,6.357,0,0,1-6.35,6.349H74.7a33.008,33.008,0,0,1-3.186,7.7l2.948,2.948a6.357,6.357,0,0,1,0,8.98l-3.443,3.443a6.352,6.352,0,0,1-8.98,0l-2.948-2.949A33.011,33.011,0,0,1,51.4,74.7v4.171a6.357,6.357,0,0,1-6.349,6.35M25.907,68.365a1.381,1.381,0,0,1,.731.208,30.25,30.25,0,0,0,8.907,3.688,1.4,1.4,0,0,1,1.073,1.357v5.255a3.563,3.563,0,0,0,3.559,3.56h4.869a3.564,3.564,0,0,0,3.559-3.56V73.618a1.4,1.4,0,0,1,1.073-1.357,30.3,30.3,0,0,0,8.883-3.673c.023-.015.046-.029.071-.043s.062-.033.093-.048a1.4,1.4,0,0,1,1.661.366l3.628,3.628a3.646,3.646,0,0,0,5.034,0l3.443-3.443a3.563,3.563,0,0,0,0-5.034L68.836,60.36a1.393,1.393,0,0,1-.263-1.775,30.261,30.261,0,0,0,3.688-8.907A1.394,1.394,0,0,1,73.618,48.6h5.255a3.563,3.563,0,0,0,3.56-3.559V40.177a3.563,3.563,0,0,0-3.56-3.559H73.618a1.394,1.394,0,0,1-1.357-1.073,30.271,30.271,0,0,0-3.686-8.9,1.4,1.4,0,0,1,.2-1.719l3.714-3.714a3.563,3.563,0,0,0,0-5.034l-3.443-3.443a3.564,3.564,0,0,0-5.034,0L60.3,16.447a1.4,1.4,0,0,1-1.718.2,30.238,30.238,0,0,0-8.9-3.686A1.4,1.4,0,0,1,48.6,11.6V6.35a3.564,3.564,0,0,0-3.559-3.56H40.177a3.563,3.563,0,0,0-3.559,3.56V11.6a1.4,1.4,0,0,1-1.073,1.357,30.26,30.26,0,0,0-8.9,3.686,1.394,1.394,0,0,1-1.719-.2l-3.714-3.715a3.564,3.564,0,0,0-5.034,0l-3.443,3.443a3.561,3.561,0,0,0,0,5.034l3.715,3.714a1.4,1.4,0,0,1,.2,1.719,30.27,30.27,0,0,0-3.686,8.9A1.394,1.394,0,0,1,11.6,36.618H6.35a3.563,3.563,0,0,0-3.56,3.559v4.869A3.563,3.563,0,0,0,6.35,48.6H11.6a1.394,1.394,0,0,1,1.357,1.073,30.27,30.27,0,0,0,3.667,8.873,1.437,1.437,0,0,1,.087.153,1.4,1.4,0,0,1-.344,1.671l-3.64,3.639a3.561,3.561,0,0,0,0,5.034l3.443,3.443a3.647,3.647,0,0,0,5.034,0l3.635-3.636a1.4,1.4,0,0,1,1.063-.49" fill="#d22e3f"/>
    </g>
  </g>
</svg>
